<?xml version="1.0"?>
<svg xmlns="http://www.w3.org/2000/svg" xmlns:xlink="http://www.w3.org/1999/xlink" version="1.1" id="Capa_1" x="0px" y="0px" viewBox="0 0 512 512" style="enable-background:new 0 0 512 512;" xml:space="preserve" width="512px" height="512px"><g><path style="fill:#3C3A41;" d="M481.528,405.751v61.143c0,8.421-6.615,15.035-15.035,15.035H45.507  c-8.421,0-15.035-6.614-15.035-15.035v-61.143c0-54.728,32.175-102.539,80.589-123.89l-29.468-29.468  c-6.616-6.616-11.727-14.134-15.336-22.553c-3.608-8.721-5.713-18.043-5.713-27.967c0-1.202,0.301-2.705,0.301-4.209  c7.818-4.812,46.007-39.392,54.728-43.602L256,127.6l5.713-1.202l144.939,32.475c4.81,2.707,39.693,35.483,44.503,38.491  c0,1.504,0.301,3.006,0.301,4.51c0,9.924-2.105,19.547-5.713,28.266c-3.608,8.12-8.719,15.938-15.336,22.254l-29.468,29.468  C449.353,303.211,481.528,351.022,481.528,405.751z" data-original="#3C3A41" class=""/><path style="fill:#2B292C;" d="M481.528,405.751v61.143c0,8.421-6.615,15.035-15.035,15.035H256V127.6l5.713-1.202l144.939,32.475  c4.81,2.707,39.693,35.483,44.503,38.491c0,1.504,0.301,3.006,0.301,4.51c0,9.924-2.105,19.547-5.713,28.266  c-3.608,8.12-8.719,15.938-15.336,22.254l-29.468,29.468C449.353,303.211,481.528,351.022,481.528,405.751z" data-original="#2B292C"/><path style="fill:#FEDBAB;" d="M361.246,143.837v51.421c0,58.036-47.211,105.246-105.246,105.246s-105.246-47.211-105.246-105.246  v-51.421c0-8.419,6.614-15.035,15.035-15.035h180.423C354.632,128.802,361.246,135.418,361.246,143.837z" data-original="#FEDBAB"/><path style="fill:#FFC783;" d="M361.246,143.837v51.421c0,58.036-47.211,105.246-105.246,105.246V128.802h90.211  C354.632,128.802,361.246,135.418,361.246,143.837z" data-original="#FFC783"/><path style="fill:#57555C;" d="M451.157,197.363C403.645,167.895,332.98,150.153,256,150.153  c-78.182,0-147.945,18.041-195.157,47.512c1.202-16.239,7.217-31.574,18.343-43.602L194.657,25.862C210.293,8.421,233.146,0,256,0  s45.708,8.421,61.343,25.862l115.471,128.2C443.639,166.091,449.955,181.126,451.157,197.363z" data-original="#57555C"/><path style="fill:#3C3A41;" d="M451.157,197.363C403.645,167.895,332.98,150.153,256,150.153V0c22.854,0,45.708,8.421,61.343,25.862  l115.471,128.2C443.639,166.091,449.955,181.126,451.157,197.363z" data-original="#3C3A41" class=""/><path style="fill:#E1E4FB;" d="M346.211,330.575H165.789c-24.959,0-45.106,20.146-45.106,45.106v121.284  c0,8.421,6.614,15.035,15.035,15.035h240.563c8.421,0,15.035-6.614,15.035-15.035V375.681  C391.317,350.721,371.171,330.575,346.211,330.575z" data-original="#E1E4FB"/><g>
	<path style="fill:#C5C9F7;" d="M391.317,375.681v121.284c0,8.421-6.614,15.035-15.035,15.035H256V330.575h90.211   C371.171,330.575,391.317,350.721,391.317,375.681z" data-original="#C5C9F7"/>
	<path style="fill:#C5C9F7;" d="M301.106,405.751c0,8.421-6.615,15.035-15.035,15.035H225.93c-8.421,0-15.035-6.614-15.035-15.035   c0-8.421,6.614-15.035,15.035-15.035h60.141C294.491,390.716,301.106,397.33,301.106,405.751z" data-original="#C5C9F7"/>
</g><path style="fill:#A3B0EF" d="M301.106,405.751c0,8.421-6.615,15.035-15.035,15.035H256v-30.07h30.07  C294.491,390.716,301.106,397.33,301.106,405.751z" data-original="#A3B0EF" class="active-path"/></g> </svg>
