<?xml version="1.0"?>
<svg xmlns="http://www.w3.org/2000/svg" xmlns:xlink="http://www.w3.org/1999/xlink" version="1.1" id="Capa_1" x="0px" y="0px" viewBox="0 0 418.934 418.934" style="enable-background:new 0 0 418.934 418.934;" xml:space="preserve" width="512px" height="512px"><g><path style="fill:#3F6472;" d="M0.01,380.848c0,0-1.862,27.928,45.616,27.928h346.896c14.588,0,26.412-11.824,26.412-26.412V88.877  c0-14.587-11.824-26.412-26.412-26.412H0.001L0.01,380.848z" data-original="#3F6472" class=""/><path style="fill:#224249;" d="M0.001,62.464l0.01,318.384c0,0-1.862,27.928,45.616,27.928h67.889L252.494,62.464  C252.494,62.464,0.001,62.464,0.001,62.464z" data-original="#224249"/><path style="fill:#91BAC1;" d="M0.01,380.848c0,0,1.734-30.666,41.188-36.415c7.672-1.118,13.495-7.448,13.495-15.202V19.577  c0-5.202-4.217-9.419-9.419-9.419l0,0c-24.999,0-45.264,20.265-45.264,45.264V380.848z" data-original="#91BAC1"/><g>
	<path style="fill:#FFBC6C;" d="M374.2,287.768h-20.471v-4.322c0-24.304-19.773-44.076-44.077-44.076h-69.313v-40.02h-11.753v40.02   h-69.318c-24.304,0-44.077,19.772-44.077,44.076v4.322H94.722c-4.387,0-7.944,3.557-7.944,7.944v28.954   c0,4.387,3.557,7.943,7.944,7.943h52.693c4.387,0,7.944-3.557,7.944-7.943v-28.954c0-4.388-3.557-7.944-7.944-7.944h-20.471v-4.322   c0-17.821,14.503-32.324,32.325-32.324h69.318v36.646h-20.472c-4.387,0-7.944,3.557-7.944,7.944v28.954   c0,4.387,3.557,7.943,7.944,7.943h52.693c4.387,0,7.943-3.557,7.943-7.943v-28.954c0-4.388-3.557-7.944-7.943-7.944h-20.469   v-36.646h69.313c17.821,0,32.324,14.503,32.324,32.324v4.322h-20.47c-4.387,0-7.943,3.557-7.943,7.944v28.954   c0,4.387,3.557,7.943,7.943,7.943h52.693c4.388,0,7.944-3.557,7.944-7.943v-28.954C382.145,291.324,378.588,287.768,374.2,287.768z   " data-original="#FFBC6C"/>
	<path style="fill:#FFBC6C;" d="M265.097,205.014h-61.271c-7.183,0-13.006-5.823-13.006-13.006v-40.372   c0-7.183,5.823-13.006,13.006-13.006h61.271c7.183,0,13.006,5.823,13.006,13.006v40.372   C278.103,199.192,272.28,205.014,265.097,205.014z" data-original="#FFBC6C"/>
</g><g>
	<path style="fill:#E08327;" d="M159.268,239.369c-24.304,0-44.077,19.772-44.077,44.076v4.322H94.722   c-4.388,0-7.944,3.557-7.944,7.944v28.953c0,4.388,3.557,7.944,7.944,7.944h49.359l11.278-28.102v-8.796   c0-4.388-3.557-7.944-7.944-7.944h-20.471v-4.322c0-17.821,14.503-32.324,32.325-32.324h17.515l4.716-11.752h-22.232V239.369z" data-original="#E08327"/>
	<path style="fill:#E08327;" d="M190.82,151.636v40.373c0,4.357,2.162,8.191,5.452,10.551l25.655-63.929h-18.101   C196.643,138.631,190.82,144.454,190.82,151.636z" data-original="#E08327"/>
</g><g>
	<rect x="370.878" y="138.647" style="fill:#FFFFFF" width="12.704" height="12.705" data-original="#FFFFFF" class="active-path"/>
	<rect x="370.878" y="164.247" style="fill:#FFFFFF" width="12.704" height="12.705" data-original="#FFFFFF" class="active-path"/>
	<rect x="370.878" y="189.847" style="fill:#FFFFFF" width="12.704" height="12.705" data-original="#FFFFFF" class="active-path"/>
</g></g> </svg>
