<?xml version="1.0" encoding="iso-8859-1"?>
<!-- Generator: Adobe Illustrator 19.0.0, SVG Export Plug-In . SVG Version: 6.00 Build 0)  -->
<svg xmlns="http://www.w3.org/2000/svg" xmlns:xlink="http://www.w3.org/1999/xlink" version="1.1" id="Capa_1" x="0px" y="0px" viewBox="0 0 512 512" style="enable-background:new 0 0 512 512;" xml:space="preserve" width="512px" height="512px">
<g>
	<g>
		<rect x="118.26" y="161.3" width="137.28" height="15" fill="#933EC5"/>
	</g>
</g>
<g>
	<g>
		<rect x="287.55" y="403.99" width="94.33" height="15" fill="#933EC5"/>
	</g>
</g>
<g>
	<g>
		<rect x="287.55" y="435.19" width="94.33" height="15" fill="#933EC5"/>
	</g>
</g>
<g>
	<g>
		<rect x="118.26" y="123.61" width="137.28" height="15" fill="#933EC5"/>
	</g>
</g>
<g>
	<g>
		<rect x="118.26" y="198.98" width="278.73" height="15" fill="#933EC5"/>
	</g>
</g>
<g>
	<g>
		<rect x="118.26" y="239.78" width="278.73" height="15" fill="#933EC5"/>
	</g>
</g>
<g>
	<g>
		<rect x="118.26" y="280.58" width="278.73" height="15" fill="#933EC5"/>
	</g>
</g>
<g>
	<g>
		<rect x="118.26" y="321.37" width="278.73" height="15" fill="#933EC5"/>
	</g>
</g>
<g>
	<g>
		<path d="M274.042,31.153v145.143h130.447V31.153H274.042z M314.4,161.296v-22.913c0-13.711,11.154-24.866,24.865-24.866    s24.865,11.155,24.865,24.866v22.913H314.4z M323.598,82.761c0-8.639,7.028-15.667,15.667-15.667    c8.639,0,15.667,7.028,15.667,15.667c0,8.639-7.028,15.667-15.667,15.667C330.626,98.428,323.598,91.399,323.598,82.761z     M389.489,161.296h-10.358v-22.913c0-14.13-7.396-26.558-18.513-33.64c5.739-5.576,9.315-13.367,9.315-21.982    c0-16.91-13.757-30.667-30.667-30.667c-16.91,0-30.667,13.757-30.667,30.667c0,8.615,3.576,16.406,9.315,21.982    c-11.117,7.082-18.513,19.509-18.513,33.64v22.913h-10.358V46.153h100.446V161.296z" fill="#933EC5"/>
	</g>
</g>
<g>
	<g>
		<path d="M152.123,0l-2.876,2.876L76.106,76.017c-0.002,0.002-0.004,0.005-0.006,0.007l-2.87,2.87V512h365.54V0H152.123z     M147.73,25.606V74.5H98.836L147.73,25.606z M423.77,497H88.23V89.5h74.5V15h261.04V497z" fill="#933EC5"/>
	</g>
</g>
<g>
	<g>
		<path d="M216.066,396.659c3.233-1.781,5.569-3.068,10.898-3.068c5.329,0,7.665,1.287,10.898,3.068    c3.987,2.197,8.949,4.932,18.137,4.932v-15c-5.329,0-7.665-1.287-10.898-3.068c-3.986-2.198-8.948-4.932-18.136-4.932    c-6.24,0-10.528,1.262-13.888,2.759v-21.723H110.76v90.562h102.316v-25.054c1.076-0.529,2.061-1.069,2.99-1.581    c3.233-1.781,5.569-3.068,10.898-3.068c5.329,0,7.665,1.287,10.898,3.068c3.987,2.197,8.949,4.932,18.137,4.932v-15    c-5.329,0-7.665-1.287-10.898-3.068c-3.987-2.197-8.949-4.932-18.137-4.932c-6.24,0-10.528,1.262-13.888,2.759V398.24    C214.152,397.711,215.137,397.171,216.066,396.659z M179.794,396.659c3.987,2.197,8.948,4.932,18.136,4.932    c0.05,0,0.097-0.003,0.147-0.003v11.895c-0.05,0-0.096,0.002-0.147,0.002c-5.328,0-7.663-1.287-10.896-3.068    c-3.987-2.197-8.948-4.932-18.136-4.932v15c5.328,0,7.663,1.287,10.896,3.068c3.987,2.197,8.948,4.932,18.136,4.932    c0.05,0,0.097-0.003,0.147-0.003v6.706H125.76v-60.562h72.316v11.963h0.001c-0.05,0-0.096,0.002-0.147,0.002    c-5.328,0-7.663-1.287-10.896-3.068c-3.987-2.197-8.948-4.932-18.136-4.932v15C174.226,393.591,176.561,394.878,179.794,396.659z" fill="#933EC5"/>
	</g>
</g>
<g>
</g>
<g>
</g>
<g>
</g>
<g>
</g>
<g>
</g>
<g>
</g>
<g>
</g>
<g>
</g>
<g>
</g>
<g>
</g>
<g>
</g>
<g>
</g>
<g>
</g>
<g>
</g>
<g>
</g>
</svg>
